<svg xmlns="http://www.w3.org/2000/svg" viewBox="0 0 1366 768"><defs><style>.a{opacity:0.3;}</style></defs><title>アートボード 1</title><g class="a"><rect x="1305.36" y="60.62" width="70.46" height="70.46" rx="8.46" ry="8.46"/><rect x="1229.97" y="60.62" width="70.46" height="70.46" rx="8.46" ry="8.46"/><rect x="1154.57" y="60.62" width="70.46" height="70.46" rx="8.46" ry="8.46"/><rect x="1079.18" y="60.62" width="70.46" height="70.46" rx="8.46" ry="8.46"/><rect x="1003.79" y="60.62" width="70.46" height="70.46" rx="8.46" ry="8.46"/><rect x="928.39" y="60.62" width="70.46" height="70.46" rx="8.46" ry="8.46"/><rect x="853" y="60.62" width="70.46" height="70.46" rx="8.46" ry="8.46"/><rect x="1305.36" y="136.09" width="70.46" height="70.46" rx="8.46" ry="8.46"/><rect x="1229.97" y="136.09" width="70.46" height="70.46" rx="8.46" ry="8.46"/><rect x="1154.57" y="136.09" width="70.46" height="70.46" rx="8.46" ry="8.46"/><rect x="1079.18" y="136.09" width="70.46" height="70.46" rx="8.46" ry="8.46"/><rect x="1003.79" y="136.09" width="70.46" height="70.46" rx="8.46" ry="8.46"/><rect x="928.39" y="136.09" width="70.46" height="70.46" rx="8.46" ry="8.46"/><rect x="853" y="136.09" width="70.46" height="70.46" rx="8.46" ry="8.46"/><rect x="1305.36" y="211.56" width="70.46" height="70.46" rx="8.46" ry="8.46"/><rect x="1229.97" y="211.56" width="70.46" height="70.46" rx="8.46" ry="8.46"/><rect x="1154.57" y="211.56" width="70.46" height="70.46" rx="8.46" ry="8.46"/><rect x="1079.18" y="211.56" width="70.46" height="70.46" rx="8.46" ry="8.46"/><rect x="1003.79" y="211.56" width="70.46" height="70.46" rx="8.46" ry="8.46"/><rect x="928.39" y="211.56" width="70.46" height="70.46" rx="8.46" ry="8.46"/><rect x="853" y="211.56" width="70.46" height="70.46" rx="8.46" ry="8.46"/><rect x="1305.36" y="287.03" width="70.46" height="70.46" rx="8.46" ry="8.46"/><rect x="1229.97" y="287.03" width="70.46" height="70.46" rx="8.46" ry="8.46"/><rect x="1154.57" y="287.03" width="70.46" height="70.46" rx="8.46" ry="8.46"/><rect x="1079.18" y="287.03" width="70.46" height="70.46" rx="8.46" ry="8.46"/><rect x="1003.79" y="287.03" width="70.46" height="70.46" rx="8.46" ry="8.46"/><rect x="928.39" y="287.03" width="70.46" height="70.46" rx="8.46" ry="8.46"/><rect x="853" y="287.03" width="70.46" height="70.46" rx="8.46" ry="8.46"/><rect x="1305.36" y="362.51" width="70.46" height="70.46" rx="8.46" ry="8.46"/><rect x="1229.97" y="362.51" width="70.46" height="70.46" rx="8.46" ry="8.46"/><rect x="1154.57" y="362.51" width="70.46" height="70.46" rx="8.46" ry="8.46"/><rect x="1079.18" y="362.51" width="70.46" height="70.46" rx="8.46" ry="8.46"/><rect x="1003.79" y="362.51" width="70.46" height="70.46" rx="8.46" ry="8.46"/><rect x="928.39" y="362.51" width="70.46" height="70.46" rx="8.46" ry="8.46"/><rect x="853" y="362.51" width="70.46" height="70.46" rx="8.46" ry="8.46"/><rect x="1305.36" y="437.98" width="70.46" height="70.46" rx="8.46" ry="8.46"/><rect x="1229.97" y="437.98" width="70.46" height="70.46" rx="8.46" ry="8.46"/><rect x="1154.57" y="437.98" width="70.46" height="70.46" rx="8.46" ry="8.46"/><rect x="1079.18" y="437.98" width="70.46" height="70.46" rx="8.46" ry="8.46"/><rect x="1003.79" y="437.98" width="70.46" height="70.46" rx="8.46" ry="8.46"/><rect x="928.39" y="437.98" width="70.46" height="70.46" rx="8.46" ry="8.46"/><rect x="853" y="437.98" width="70.46" height="70.46" rx="8.46" ry="8.46"/><rect x="1305.36" y="513.45" width="70.46" height="70.46" rx="8.46" ry="8.46"/><rect x="1229.97" y="513.45" width="70.46" height="70.46" rx="8.46" ry="8.46"/><rect x="1154.57" y="513.45" width="70.46" height="70.46" rx="8.46" ry="8.46"/><rect x="1079.18" y="513.45" width="70.46" height="70.46" rx="8.46" ry="8.46"/><rect x="1003.79" y="513.45" width="70.46" height="70.46" rx="8.46" ry="8.46"/><rect x="928.39" y="513.45" width="70.46" height="70.46" rx="8.46" ry="8.46"/><rect x="853" y="513.45" width="70.46" height="70.46" rx="8.46" ry="8.46"/><rect x="1305.36" y="588.92" width="70.46" height="70.46" rx="8.46" ry="8.46"/><rect x="1229.97" y="588.92" width="70.46" height="70.46" rx="8.46" ry="8.46"/><rect x="1154.57" y="588.92" width="70.46" height="70.46" rx="8.46" ry="8.46"/><rect x="1079.18" y="588.92" width="70.46" height="70.46" rx="8.46" ry="8.46"/><rect x="1003.79" y="588.92" width="70.46" height="70.46" rx="8.46" ry="8.46"/><rect x="928.39" y="588.92" width="70.46" height="70.46" rx="8.46" ry="8.46"/><rect x="853" y="588.92" width="70.46" height="70.46" rx="8.46" ry="8.46"/><rect x="1305.36" y="-14.85" width="70.46" height="70.46" rx="8.46" ry="8.46"/><rect x="1229.97" y="-14.85" width="70.46" height="70.46" rx="8.46" ry="8.46"/><rect x="1154.57" y="-14.85" width="70.46" height="70.46" rx="8.46" ry="8.46"/><rect x="1079.18" y="-14.85" width="70.46" height="70.46" rx="8.46" ry="8.46"/><rect x="1003.79" y="-14.85" width="70.46" height="70.46" rx="8.46" ry="8.46"/><rect x="928.39" y="-14.85" width="70.46" height="70.46" rx="8.46" ry="8.46"/><rect x="853" y="-14.85" width="70.46" height="70.46" rx="8.46" ry="8.46"/><rect x="1305.36" y="664.39" width="70.46" height="70.46" rx="8.46" ry="8.46"/><rect x="1229.97" y="664.39" width="70.46" height="70.46" rx="8.46" ry="8.46"/><rect x="1154.57" y="664.39" width="70.46" height="70.46" rx="8.46" ry="8.46"/><rect x="1079.18" y="664.39" width="70.46" height="70.46" rx="8.46" ry="8.46"/><rect x="1003.79" y="664.39" width="70.46" height="70.46" rx="8.46" ry="8.46"/><rect x="928.39" y="664.39" width="70.46" height="70.46" rx="8.46" ry="8.46"/><rect x="853" y="664.39" width="70.46" height="70.46" rx="8.46" ry="8.46"/></g></svg>