<svg xmlns="http://www.w3.org/2000/svg" viewBox="0 0 1366 768"><defs><style>.a{opacity:0.3;}</style></defs><title>アートボード 1</title><rect class="a" x="478.98" y="349.02" width="84.84" height="84.84" rx="10.18" ry="10.18"/><rect class="a" x="388.2" y="349.02" width="84.84" height="84.84" rx="10.18" ry="10.18"/><rect class="a" x="297.42" y="349.02" width="84.84" height="84.84" rx="10.18" ry="10.18"/><rect class="a" x="206.64" y="349.02" width="84.84" height="84.84" rx="10.18" ry="10.18"/><rect class="a" x="115.85" y="349.02" width="84.84" height="84.84" rx="10.18" ry="10.18"/><rect class="a" x="25.07" y="349.02" width="84.84" height="84.84" rx="10.18" ry="10.18"/><rect class="a" x="-65.71" y="349.02" width="84.84" height="84.84" rx="10.18" ry="10.18"/><rect class="a" x="569.76" y="349.02" width="84.84" height="84.84" rx="10.18" ry="10.18"/><rect class="a" x="478.98" y="439.9" width="84.84" height="84.84" rx="10.18" ry="10.18"/><rect class="a" x="388.2" y="439.9" width="84.84" height="84.84" rx="10.18" ry="10.18"/><rect class="a" x="297.42" y="439.9" width="84.84" height="84.84" rx="10.18" ry="10.18"/><rect class="a" x="206.64" y="439.9" width="84.84" height="84.84" rx="10.18" ry="10.18"/><rect class="a" x="115.85" y="439.9" width="84.84" height="84.84" rx="10.18" ry="10.18"/><rect class="a" x="25.07" y="439.9" width="84.84" height="84.84" rx="10.18" ry="10.18"/><rect class="a" x="-65.71" y="439.9" width="84.84" height="84.84" rx="10.18" ry="10.18"/><rect class="a" x="569.76" y="439.9" width="84.84" height="84.84" rx="10.18" ry="10.18"/><rect class="a" x="478.98" y="530.78" width="84.84" height="84.84" rx="10.18" ry="10.18"/><rect class="a" x="388.2" y="530.78" width="84.84" height="84.84" rx="10.18" ry="10.18"/><rect class="a" x="297.42" y="530.78" width="84.84" height="84.84" rx="10.18" ry="10.18"/><rect class="a" x="206.64" y="530.78" width="84.84" height="84.84" rx="10.18" ry="10.18"/><rect class="a" x="115.85" y="530.78" width="84.84" height="84.84" rx="10.18" ry="10.18"/><rect class="a" x="25.07" y="530.78" width="84.84" height="84.84" rx="10.18" ry="10.18"/><rect class="a" x="-65.71" y="530.78" width="84.84" height="84.84" rx="10.18" ry="10.18"/><rect class="a" x="569.76" y="530.78" width="84.84" height="84.84" rx="10.18" ry="10.18"/><rect class="a" x="478.98" y="621.65" width="84.84" height="84.84" rx="10.18" ry="10.18"/><rect class="a" x="388.2" y="621.65" width="84.84" height="84.84" rx="10.18" ry="10.18"/><rect class="a" x="297.42" y="621.65" width="84.84" height="84.84" rx="10.18" ry="10.18"/><rect class="a" x="206.64" y="621.65" width="84.84" height="84.84" rx="10.18" ry="10.18"/><rect class="a" x="115.85" y="621.65" width="84.84" height="84.84" rx="10.18" ry="10.18"/><rect class="a" x="25.07" y="621.65" width="84.84" height="84.84" rx="10.18" ry="10.18"/><rect class="a" x="-65.71" y="621.65" width="84.84" height="84.84" rx="10.18" ry="10.18"/><rect class="a" x="569.76" y="621.65" width="84.84" height="84.84" rx="10.18" ry="10.18"/><rect class="a" x="478.98" y="712.53" width="84.84" height="84.84" rx="10.18" ry="10.18"/><rect class="a" x="388.2" y="712.53" width="84.84" height="84.84" rx="10.18" ry="10.18"/><rect class="a" x="297.42" y="712.53" width="84.84" height="84.84" rx="10.18" ry="10.18"/><rect class="a" x="206.64" y="712.53" width="84.84" height="84.84" rx="10.18" ry="10.18"/><rect class="a" x="115.85" y="712.53" width="84.84" height="84.84" rx="10.18" ry="10.18"/><rect class="a" x="25.07" y="712.53" width="84.84" height="84.84" rx="10.18" ry="10.18"/><rect class="a" x="-65.71" y="712.53" width="84.84" height="84.84" rx="10.18" ry="10.18"/><rect class="a" x="569.76" y="712.53" width="84.84" height="84.84" rx="10.18" ry="10.18"/><rect class="a" x="478.98" y="258.15" width="84.84" height="84.84" rx="10.18" ry="10.18"/><rect class="a" x="388.2" y="258.15" width="84.84" height="84.84" rx="10.18" ry="10.18"/><rect class="a" x="297.42" y="258.15" width="84.84" height="84.84" rx="10.18" ry="10.18"/><rect class="a" x="206.64" y="258.15" width="84.84" height="84.84" rx="10.18" ry="10.18"/><rect class="a" x="115.85" y="258.15" width="84.84" height="84.84" rx="10.18" ry="10.18"/><rect class="a" x="25.07" y="258.15" width="84.84" height="84.84" rx="10.18" ry="10.18"/><rect class="a" x="-65.71" y="258.15" width="84.84" height="84.84" rx="10.18" ry="10.18"/><rect class="a" x="569.76" y="258.15" width="84.84" height="84.84" rx="10.18" ry="10.18"/></svg>