<svg xmlns="http://www.w3.org/2000/svg" viewBox="0 0 1366 768"><defs><style>.a{opacity:0.3;}</style></defs><title>アートボード 1</title><g class="a"><polygon points="958.6 203.27 902.22 300.92 1014.99 300.92 958.6 203.27"/><polygon points="1023.04 300.94 966.66 203.28 1079.42 203.28 1023.04 300.94"/><polygon points="1087.48 203.27 1031.1 300.92 1143.87 300.92 1087.48 203.27"/><polygon points="1151.92 300.94 1095.55 203.28 1208.31 203.28 1151.92 300.94"/><polygon points="1216.37 203.27 1159.98 300.92 1272.74 300.92 1216.37 203.27"/><polygon points="1280.81 300.94 1224.42 203.28 1337.19 203.28 1280.81 300.94"/><polygon points="1345.24 203.27 1288.87 300.92 1401.63 300.92 1345.24 203.27"/><polygon points="1409.69 300.94 1353.31 203.28 1466.07 203.28 1409.69 300.94"/><polygon points="700.84 203.27 644.46 300.92 757.22 300.92 700.84 203.27"/><polygon points="765.28 300.94 708.9 203.28 821.66 203.28 765.28 300.94"/><polygon points="829.72 203.27 773.34 300.92 886.1 300.92 829.72 203.27"/><polygon points="894.16 300.94 837.78 203.28 950.54 203.28 894.16 300.94"/><polygon points="958.6 197.17 902.22 99.52 1014.99 99.52 958.6 197.17"/><polygon points="1023.04 99.5 966.66 197.16 1079.42 197.16 1023.04 99.5"/><polygon points="1087.48 197.17 1031.1 99.52 1143.87 99.52 1087.48 197.17"/><polygon points="1151.92 99.5 1095.55 197.16 1208.31 197.16 1151.92 99.5"/><polygon points="1216.37 197.17 1159.98 99.52 1272.74 99.52 1216.37 197.17"/><polygon points="1280.81 99.5 1224.42 197.16 1337.19 197.16 1280.81 99.5"/><polygon points="1345.24 197.17 1288.87 99.52 1401.63 99.52 1345.24 197.17"/><polygon points="1409.69 99.5 1353.31 197.16 1466.07 197.16 1409.69 99.5"/><polygon points="765.28 99.5 708.9 197.16 821.66 197.16 765.28 99.5"/><polygon points="829.72 197.17 773.34 99.52 886.1 99.52 829.72 197.17"/><polygon points="894.16 99.5 837.78 197.16 950.54 197.16 894.16 99.5"/><polygon points="958.6 -4.26 902.22 93.39 1014.99 93.39 958.6 -4.26"/><polygon points="1023.04 93.4 966.66 -4.25 1079.42 -4.25 1023.04 93.4"/><polygon points="1087.48 -4.26 1031.1 93.39 1143.87 93.39 1087.48 -4.26"/><polygon points="1151.92 93.4 1095.55 -4.25 1208.31 -4.25 1151.92 93.4"/><polygon points="1216.37 -4.26 1159.98 93.39 1272.74 93.39 1216.37 -4.26"/><polygon points="1280.81 93.4 1224.42 -4.25 1337.19 -4.25 1280.81 93.4"/><polygon points="1345.24 -4.26 1288.87 93.39 1401.63 93.39 1345.24 -4.26"/><polygon points="1409.69 93.4 1353.31 -4.25 1466.07 -4.25 1409.69 93.4"/><polygon points="829.72 -4.26 773.34 93.39 886.1 93.39 829.72 -4.26"/><polygon points="894.16 93.4 837.78 -4.25 950.54 -4.25 894.16 93.4"/><polygon points="958.6 618.33 902.22 715.99 1014.99 715.99 958.6 618.33"/><polygon points="1023.04 716 966.66 618.35 1079.42 618.35 1023.04 716"/><polygon points="1087.48 618.33 1031.1 715.99 1143.87 715.99 1087.48 618.33"/><polygon points="1151.92 716 1095.55 618.35 1208.31 618.35 1151.92 716"/><polygon points="1216.37 618.33 1159.98 715.99 1272.74 715.99 1216.37 618.33"/><polygon points="1280.81 716 1224.42 618.35 1337.19 618.35 1280.81 716"/><polygon points="1345.24 618.33 1288.87 715.99 1401.63 715.99 1345.24 618.33"/><polygon points="1409.69 716 1353.31 618.35 1466.07 618.35 1409.69 716"/><polygon points="894.16 716 837.78 618.35 950.54 618.35 894.16 716"/><polygon points="958.6 612.23 902.22 514.58 1014.99 514.58 958.6 612.23"/><polygon points="1023.04 514.57 966.66 612.22 1079.42 612.22 1023.04 514.57"/><polygon points="1087.48 612.23 1031.1 514.58 1143.87 514.58 1087.48 612.23"/><polygon points="1151.92 514.57 1095.55 612.22 1208.31 612.22 1151.92 514.57"/><polygon points="1216.37 612.23 1159.98 514.58 1272.74 514.58 1216.37 612.23"/><polygon points="1280.81 514.57 1224.42 612.22 1337.19 612.22 1280.81 514.57"/><polygon points="1345.24 612.23 1288.87 514.58 1401.63 514.58 1345.24 612.23"/><polygon points="1409.69 514.57 1353.31 612.22 1466.07 612.22 1409.69 514.57"/><polygon points="829.72 612.23 773.34 514.58 886.1 514.58 829.72 612.23"/><polygon points="894.16 514.57 837.78 612.22 950.54 612.22 894.16 514.57"/><polygon points="958.6 410.8 902.22 508.45 1014.99 508.45 958.6 410.8"/><polygon points="1023.04 508.47 966.66 410.81 1079.42 410.81 1023.04 508.47"/><polygon points="1087.48 410.8 1031.1 508.45 1143.87 508.45 1087.48 410.8"/><polygon points="1151.92 508.47 1095.55 410.81 1208.31 410.81 1151.92 508.47"/><polygon points="1216.37 410.8 1159.98 508.45 1272.74 508.45 1216.37 410.8"/><polygon points="1280.81 508.47 1224.42 410.81 1337.19 410.81 1280.81 508.47"/><polygon points="1345.24 410.8 1288.87 508.45 1401.63 508.45 1345.24 410.8"/><polygon points="1409.69 508.47 1353.31 410.81 1466.07 410.81 1409.69 508.47"/><polygon points="765.28 508.47 708.9 410.81 821.66 410.81 765.28 508.47"/><polygon points="829.72 410.8 773.34 508.45 886.1 508.45 829.72 410.8"/><polygon points="894.16 508.47 837.78 410.81 950.54 410.81 894.16 508.47"/><polygon points="958.6 404.7 902.22 307.05 1014.99 307.05 958.6 404.7"/><polygon points="1023.04 307.04 966.66 404.69 1079.42 404.69 1023.04 307.04"/><polygon points="1087.48 404.7 1031.1 307.05 1143.87 307.05 1087.48 404.7"/><polygon points="1151.92 307.04 1095.55 404.69 1208.31 404.69 1151.92 307.04"/><polygon points="1216.37 404.7 1159.98 307.05 1272.74 307.05 1216.37 404.7"/><polygon points="1280.81 307.04 1224.42 404.69 1337.19 404.69 1280.81 307.04"/><polygon points="1345.24 404.7 1288.87 307.05 1401.63 307.05 1345.24 404.7"/><polygon points="1409.69 307.04 1353.31 404.69 1466.07 404.69 1409.69 307.04"/><polygon points="700.84 404.7 644.46 307.05 757.22 307.05 700.84 404.7"/><polygon points="765.28 307.04 708.9 404.69 821.66 404.69 765.28 307.04"/><polygon points="829.72 404.7 773.34 307.05 886.1 307.05 829.72 404.7"/><polygon points="894.16 307.04 837.78 404.69 950.54 404.69 894.16 307.04"/></g></svg>