<svg xmlns="http://www.w3.org/2000/svg" viewBox="0 0 1366 768">
    <g opacity=".3">
        <path d="M733.69 141.17v50.69H683v-50.69zM685.06 135.54l23.28-40.33 23.29 40.33h-46.57zM858.366 90.615l-25.345 43.899-43.898-25.345 25.345-43.9zM781.429 109.171l-43.9 25.345-25.344-43.898 43.899-25.345zM739.32 193.05v-53.07l45.95-26.53 45.96 26.53v53.07l-45.96 26.53-45.95-26.53zM761.99 64.24h46.57l-23.29 40.32-23.28-40.32zM1041.41 141.17v50.69h-50.69v-50.69zM1012.226 90.611l-25.345 43.9-43.898-25.346 25.345-43.899zM935.292 109.171l-43.899 25.345-25.345-43.898 43.899-25.345zM887.55 141.17v50.69h-50.69v-50.69zM893.18 193.05v-53.07l45.96-26.53 45.95 26.53v53.07l-45.95 26.53-45.96-26.53zM838.92 135.54l23.29-40.33 23.28 40.33h-46.57zM992.79 135.54l23.28-40.33 23.28 40.33h-46.56zM915.86 64.24h46.56l-23.28 40.32-23.28-40.32zM1166.086 90.608l-25.345 43.899-43.898-25.345 25.345-43.899zM1089.155 109.171l-43.899 25.345-25.345-43.898 43.9-25.345zM1047.04 193.05v-53.07l45.96-26.53 45.96 26.53v53.07L1093 219.58l-45.96-26.53zM1069.72 64.24h46.56L1093 104.56l-23.28-40.32zM810.62 7.92v50.69h-50.69V7.92zM761.99 2.29l23.28-40.33 23.29 40.33h-46.57zM935.29-42.642L909.947 1.257l-43.9-25.345 25.346-43.899zM858.355-24.084L814.456 1.26l-25.345-43.9 43.9-25.344zM816.25 59.8V6.73l45.96-26.53 45.95 26.53V59.8l-45.95 26.53-45.96-26.53zM1118.34 7.92v50.69h-50.69V7.92zM1089.15-42.645l-25.344 43.899-43.9-25.345 25.346-43.9zM1012.219-24.084l-43.9 25.345-25.344-43.9 43.899-25.344zM964.48 7.92v50.69h-50.69V7.92zM970.11 59.8V6.73l45.96-26.53 45.96 26.53V59.8l-45.96 26.53-45.96-26.53zM915.86 2.29l23.28-40.33 23.28 40.33h-46.56zM1069.72 2.29L1093-38.04l23.28 40.33h-46.56zM1243.01-42.639l-25.344 43.9-43.9-25.346 25.346-43.899zM1166.082-24.094L1122.183 1.25l-25.345-43.9 43.899-25.344zM1123.97 59.8V6.73l45.96-26.53 45.96 26.53V59.8l-45.96 26.53-45.96-26.53zM733.68 407.67v50.69h-50.69v-50.69zM685.06 402.04l23.28-40.33 23.29 40.33h-46.57zM858.36 357.115l-25.344 43.899-43.9-25.345 25.346-43.9zM781.429 375.666l-43.9 25.345-25.344-43.9 43.899-25.344zM739.32 459.54v-53.06l45.95-26.54 45.96 26.54v53.06l-45.96 26.54-45.95-26.54zM761.99 330.74h46.57l-23.29 40.32-23.28-40.32zM1041.41 407.67v50.69h-50.69v-50.69zM1012.22 357.111l-25.344 43.9-43.9-25.346 25.346-43.899zM935.292 375.666l-43.899 25.345-25.345-43.9 43.899-25.344zM887.55 407.66v50.69h-50.69v-50.69zM893.18 459.54v-53.06l45.96-26.54 45.95 26.54v53.06l-45.95 26.54-45.96-26.54zM838.92 402.04l23.29-40.33 23.28 40.33h-46.57zM992.79 402.04l23.28-40.33 23.28 40.33h-46.56zM915.86 330.74h46.56l-23.28 40.32-23.28-40.32zM1166.09 357.108l-25.344 43.899-43.9-25.345 25.346-43.899zM1089.155 375.666l-43.899 25.345-25.345-43.9 43.9-25.344zM1047.04 459.54v-53.06l45.96-26.54 45.96 26.54v53.06L1093 486.08l-45.96-26.54zM1069.72 330.74h46.56L1093 371.06l-23.28-40.32zM810.62 274.42v50.69h-50.69v-50.69zM781.434 223.866l-25.345 43.9-43.9-25.346 25.346-43.899zM761.99 268.79l23.28-40.33 23.29 40.33h-46.57zM685.06 197.49h46.57l-23.29 40.32-23.28-40.32zM935.294 223.863l-25.345 43.899-43.9-25.345 25.346-43.899zM858.36 242.419l-43.899 25.345-25.345-43.9 43.9-25.344zM816.25 326.3v-53.07l45.96-26.54 45.95 26.54v53.07l-45.95 26.53-45.96-26.53zM838.92 197.49h46.57l-23.28 40.32-23.29-40.32zM1118.34 274.42v50.69h-50.69v-50.69zM1089.154 223.86l-25.345 43.899-43.9-25.345 25.346-43.9zM1012.224 242.419l-43.9 25.345-25.344-43.9 43.899-25.344zM964.48 274.41v50.69h-50.69v-50.69zM970.11 326.3v-53.07l45.96-26.54 45.96 26.54v53.07l-45.96 26.53-45.96-26.53zM915.86 268.79l23.28-40.33 23.28 40.33h-46.56zM1069.72 268.79l23.28-40.33 23.28 40.33h-46.56zM992.79 197.49h46.56l-23.28 40.32-23.28-40.32zM1243.024 223.856l-25.345 43.9-43.9-25.346 25.346-43.899zM1166.087 242.419l-43.899 25.345-25.345-43.9 43.899-25.344zM1123.97 326.3v-53.07l45.96-26.54 45.96 26.54v53.07l-45.96 26.53-45.96-26.53zM1146.65 197.49h46.56l-23.28 40.32-23.28-40.32zM1012.225 623.611l-25.345 43.9-43.899-25.346 25.345-43.899zM992.79 668.53l23.28-40.32 23.28 40.32h-46.56zM915.86 597.23h46.56l-23.28 40.33-23.28-40.33zM1166.085 623.608l-25.345 43.899-43.899-25.345 25.345-43.899zM1089.155 642.16l-43.899 25.345-25.345-43.899 43.9-25.345zM1069.72 597.23h46.56L1093 637.56l-23.28-40.33zM781.428 490.366l-25.345 43.9-43.899-25.346 25.345-43.899zM761.99 535.28l23.28-40.32 23.29 40.32h-46.57zM685.06 463.99h46.57l-23.29 40.32-23.28-40.32zM935.288 490.363l-25.345 43.899-43.899-25.345 25.345-43.899zM858.36 508.913l-43.899 25.345-25.345-43.899 43.9-25.345zM838.92 463.99h46.57l-23.28 40.32-23.29-40.32zM1118.34 540.92v50.69h-50.69v-50.69zM1089.158 490.36l-25.345 43.899-43.899-25.345 25.345-43.9zM1012.224 508.913l-43.9 25.345-25.344-43.899 43.899-25.345zM964.48 540.91v50.69h-50.69v-50.69zM970.11 592.79v-53.06l45.96-26.54 45.96 26.54v53.06l-45.96 26.54-45.96-26.54zM915.86 535.28l23.28-40.32 23.28 40.32h-46.56zM1069.72 535.28l23.28-40.32 23.28 40.32h-46.56zM992.79 463.99h46.56l-23.28 40.32-23.28-40.32zM1243.018 490.356l-25.345 43.9-43.899-25.346 25.345-43.899zM1166.087 508.913l-43.899 25.345-25.345-43.899 43.899-25.345zM1123.97 592.79v-53.06l45.96-26.54 45.96 26.54v53.06l-45.96 26.54-45.96-26.54zM1146.65 463.99h46.56l-23.28 40.32-23.28-40.32zM1349.14 141.17v50.69h-50.69v-50.69zM1319.951 90.613l-25.345 43.9-43.898-25.346 25.345-43.899zM1243.019 109.171l-43.9 25.345-25.344-43.898 43.899-25.345zM1195.27 141.17v50.69h-50.69v-50.69zM1200.91 193.05v-53.07l45.95-26.53 45.96 26.53v53.07l-45.96 26.53-45.95-26.53zM1146.65 135.54l23.28-40.33 23.28 40.33h-46.56zM1300.51 135.54l23.28-40.33 23.29 40.33h-46.57zM1223.58 64.24h46.56l-23.28 40.32-23.28-40.32zM1396.883 109.166l-43.899 25.345-25.345-43.898 43.9-25.345zM1354.77 193.05v-53.07l45.96-26.53 45.95 26.53v53.07l-45.95 26.53-45.96-26.53zM1396.876-42.633L1371.53 1.266l-43.9-25.345 25.346-43.9zM1319.947-24.09l-43.9 25.346-25.344-43.9 43.899-25.344zM1272.21 7.92v50.69h-50.69V7.92zM1277.84 59.8V6.73l45.95-26.53 45.96 26.53V59.8l-45.96 26.53-45.95-26.53zM1223.58 2.29l23.28-40.33 23.28 40.33h-46.56zM1349.13 407.67v50.69h-50.69v-50.69zM1319.946 357.113l-25.345 43.9-43.9-25.346 25.346-43.899zM1243.019 375.666l-43.9 25.345-25.344-43.9 43.899-25.344zM1195.27 407.67v50.69h-50.69v-50.69zM1200.91 459.54v-53.06l45.95-26.54 45.96 26.54v53.06l-45.96 26.54-45.95-26.54zM1146.65 402.04l23.28-40.33 23.28 40.33h-46.56zM1300.51 402.04l23.28-40.33 23.29 40.33h-46.57zM1223.58 330.74h46.56l-23.28 40.32-23.28-40.32zM1396.873 375.67l-43.899 25.346-25.345-43.9 43.9-25.344zM1354.77 459.54v-53.06l45.96-26.54 45.95 26.54v53.06l-45.95 26.54-45.96-26.54zM1396.879 223.862l-25.345 43.899-43.9-25.345 25.346-43.9zM1319.942 242.424l-43.9 25.345-25.344-43.9 43.899-25.344zM1272.2 274.42v50.69h-50.69v-50.69zM1277.84 326.3v-53.07l45.95-26.54 45.96 26.54v53.07l-45.96 26.53-45.95-26.53zM1223.58 268.79l23.28-40.33 23.28 40.33h-46.56zM1300.51 197.49h46.57l-23.29 40.32-23.28-40.32zM1243.019 642.16l-43.9 25.345-25.344-43.899 43.899-25.345zM1146.65 668.53l23.28-40.32 23.28 40.32h-46.56zM1223.58 597.23h46.56l-23.28 40.33-23.28-40.33zM1396.883 490.362l-25.345 43.899-43.899-25.345 25.345-43.9zM1319.942 508.918l-43.9 25.345-25.344-43.899 43.899-25.345zM1272.2 540.92v50.69h-50.69v-50.69zM1223.58 535.28l23.28-40.32 23.28 40.32h-46.56zM1300.51 463.99h46.57l-23.29 40.32-23.28-40.32z"/>
    </g>
</svg>
