<svg xmlns="http://www.w3.org/2000/svg" viewBox="0 0 1366 768">
  <title>5-headline</title>
  <g style="opacity: 0.3">
    <rect x="683" y="141.17" width="50.69" height="50.69" transform="translate(874.86 -541.83) rotate(90)"/>
    <polygon points="685.06 135.54 708.34 95.21 731.63 135.54 685.06 135.54"/>
    <rect x="798.4" y="74.54" width="50.69" height="50.69" transform="translate(1322.12 -563.55) rotate(120)"/>
    <rect x="721.47" y="74.54" width="50.69" height="50.69" transform="translate(1443.51 -187.01) rotate(150)"/>
    <polygon points="739.32 193.05 739.32 139.98 785.27 113.45 831.23 139.98 831.23 193.05 785.27 219.58 739.32 193.05"/>
    <polygon points="761.99 64.24 808.56 64.24 785.27 104.56 761.99 64.24"/>
    <rect x="990.73" y="141.17" width="50.69" height="50.69" transform="translate(1182.58 -849.56) rotate(90)"/>
    <rect x="952.26" y="74.54" width="50.69" height="50.69" transform="translate(1552.91 -696.8) rotate(120)"/>
    <rect x="875.33" y="74.54" width="50.69" height="50.69" transform="translate(1730.62 -263.94) rotate(150)"/>
    <rect x="836.86" y="141.17" width="50.69" height="50.69" transform="translate(1028.72 -695.69) rotate(90)"/>
    <polygon points="893.18 193.05 893.18 139.98 939.14 113.45 985.09 139.98 985.09 193.05 939.14 219.58 893.18 193.05"/>
    <polygon points="838.92 135.54 862.21 95.21 885.49 135.54 838.92 135.54"/>
    <polygon points="992.79 135.54 1016.07 95.21 1039.35 135.54 992.79 135.54"/>
    <polygon points="915.86 64.24 962.42 64.24 939.14 104.56 915.86 64.24"/>
    <rect x="1106.12" y="74.54" width="50.69" height="50.69" transform="translate(1783.7 -830.05) rotate(120)"/>
    <rect x="1029.19" y="74.54" width="50.69" height="50.69" transform="translate(2017.73 -340.87) rotate(150)"/>
    <polygon points="1047.04 193.05 1047.04 139.98 1093 113.45 1138.96 139.98 1138.96 193.05 1093 219.58 1047.04 193.05"/>
    <polygon points="1069.72 64.24 1116.28 64.24 1093 104.56 1069.72 64.24"/>
    <rect x="759.93" y="7.92" width="50.69" height="50.69" transform="translate(818.54 -752.01) rotate(90)"/>
    <polygon points="761.99 2.29 785.27 -38.04 808.56 2.29 761.99 2.29"/>
    <rect x="875.33" y="-58.7" width="50.69" height="50.69" transform="translate(1322.12 -830.05) rotate(120)"/>
    <rect x="798.4" y="-58.7" width="50.69" height="50.69" transform="translate(1520.44 -474.12) rotate(150)"/>
    <polygon points="816.25 59.8 816.25 6.73 862.21 -19.8 908.16 6.73 908.16 59.8 862.21 86.33 816.25 59.8"/>
    <rect x="1067.66" y="7.92" width="50.69" height="50.69" transform="translate(1126.26 -1059.74) rotate(90)"/>
    <rect x="1029.19" y="-58.7" width="50.69" height="50.69" transform="translate(1552.91 -963.3) rotate(120)"/>
    <rect x="952.26" y="-58.7" width="50.69" height="50.69" transform="translate(1807.55 -551.05) rotate(150)"/>
    <rect x="913.79" y="7.92" width="50.69" height="50.69" transform="translate(972.4 -905.87) rotate(90)"/>
    <polygon points="970.11 59.8 970.11 6.73 1016.07 -19.8 1062.03 6.73 1062.03 59.8 1016.07 86.33 970.11 59.8"/>
    <polygon points="915.86 2.29 939.14 -38.04 962.42 2.29 915.86 2.29"/>
    <polygon points="1069.72 2.29 1093 -38.04 1116.28 2.29 1069.72 2.29"/>
    <rect x="1183.05" y="-58.7" width="50.69" height="50.69" transform="translate(1783.7 -1096.54) rotate(120)"/>
    <rect x="1106.12" y="-58.7" width="50.69" height="50.69" transform="translate(2094.66 -627.99) rotate(150)"/>
    <polygon points="1123.97 59.8 1123.97 6.73 1169.93 -19.8 1215.89 6.73 1215.89 59.8 1169.93 86.33 1123.97 59.8"/>
    <rect x="683" y="407.67" width="50.69" height="50.69" transform="translate(1141.35 -275.33) rotate(90)"/>
    <polygon points="685.06 402.04 708.34 361.71 731.63 402.04 685.06 402.04"/>
    <rect x="798.4" y="341.04" width="50.69" height="50.69" transform="translate(1552.91 -163.8) rotate(120)"/>
    <rect x="721.47" y="341.04" width="50.69" height="50.69" transform="translate(1576.76 310.28) rotate(150)"/>
    <polygon points="739.32 459.54 739.32 406.48 785.27 379.94 831.23 406.48 831.23 459.54 785.27 486.08 739.32 459.54"/>
    <polygon points="761.99 330.74 808.56 330.74 785.27 371.06 761.99 330.74"/>
    <rect x="990.73" y="407.67" width="50.69" height="50.69" transform="translate(1449.08 -583.06) rotate(90)"/>
    <rect x="952.26" y="341.04" width="50.69" height="50.69" transform="translate(1783.7 -297.05) rotate(120)"/>
    <rect x="875.33" y="341.04" width="50.69" height="50.69" transform="translate(1863.87 233.35) rotate(150)"/>
    <rect x="836.86" y="407.67" width="50.69" height="50.69" transform="translate(1295.22 -429.2) rotate(90)"/>
    <polygon points="893.18 459.54 893.18 406.48 939.14 379.94 985.09 406.48 985.09 459.54 939.14 486.08 893.18 459.54"/>
    <polygon points="838.92 402.04 862.21 361.71 885.49 402.04 838.92 402.04"/>
    <polygon points="992.79 402.04 1016.07 361.71 1039.35 402.04 992.79 402.04"/>
    <polygon points="915.86 330.74 962.42 330.74 939.14 371.06 915.86 330.74"/>
    <rect x="1106.12" y="341.04" width="50.69" height="50.69" transform="translate(2014.5 -430.3) rotate(120)"/>
    <rect x="1029.19" y="341.04" width="50.69" height="50.69" transform="translate(2150.98 156.42) rotate(150)"/>
    <polygon points="1047.04 459.54 1047.04 406.48 1093 379.94 1138.96 406.48 1138.96 459.54 1093 486.08 1047.04 459.54"/>
    <polygon points="1069.72 330.74 1116.28 330.74 1093 371.06 1069.72 330.74"/>
    <rect x="759.93" y="274.42" width="50.69" height="50.69" transform="translate(1085.04 -485.51) rotate(90)"/>
    <rect x="721.47" y="207.79" width="50.69" height="50.69" transform="translate(1322.12 -297.05) rotate(120)"/>
    <polygon points="761.99 268.79 785.27 228.46 808.56 268.79 761.99 268.79"/>
    <polygon points="685.06 197.49 731.63 197.49 708.34 237.81 685.06 197.49"/>
    <rect x="875.33" y="207.79" width="50.69" height="50.69" transform="translate(1552.91 -430.3) rotate(120)"/>
    <rect x="798.4" y="207.79" width="50.69" height="50.69" transform="translate(1653.69 23.17) rotate(150)"/>
    <polygon points="816.25 326.3 816.25 273.23 862.21 246.69 908.16 273.23 908.16 326.3 862.21 352.83 816.25 326.3"/>
    <polygon points="838.92 197.49 885.49 197.49 862.21 237.81 838.92 197.49"/>
    <rect x="1067.66" y="274.42" width="50.69" height="50.69" transform="translate(1392.76 -793.24) rotate(90)"/>
    <rect x="1029.19" y="207.79" width="50.69" height="50.69" transform="translate(1783.7 -563.55) rotate(120)"/>
    <rect x="952.26" y="207.79" width="50.69" height="50.69" transform="translate(1940.8 -53.76) rotate(150)"/>
    <rect x="913.79" y="274.42" width="50.69" height="50.69" transform="translate(1238.9 -639.38) rotate(90)"/>
    <polygon points="970.11 326.3 970.11 273.23 1016.07 246.69 1062.03 273.23 1062.03 326.3 1016.07 352.83 970.11 326.3"/>
    <polygon points="915.86 268.79 939.14 228.46 962.42 268.79 915.86 268.79"/>
    <polygon points="1069.72 268.79 1093 228.46 1116.28 268.79 1069.72 268.79"/>
    <polygon points="992.79 197.49 1039.35 197.49 1016.07 237.81 992.79 197.49"/>
    <rect x="1183.05" y="207.79" width="50.69" height="50.69" transform="translate(2014.5 -696.8) rotate(120)"/>
    <rect x="1106.12" y="207.79" width="50.69" height="50.69" transform="translate(2227.91 -130.69) rotate(150)"/>
    <polygon points="1123.97 326.3 1123.97 273.23 1169.93 246.69 1215.89 273.23 1215.89 326.3 1169.93 352.83 1123.97 326.3"/>
    <polygon points="1146.65 197.49 1193.21 197.49 1169.93 237.81 1146.65 197.49"/>
    <rect x="952.26" y="607.54" width="50.69" height="50.69" transform="translate(2014.5 102.7) rotate(120)"/>
    <polygon points="992.79 668.53 1016.07 628.21 1039.35 668.53 992.79 668.53"/>
    <polygon points="915.86 597.23 962.42 597.23 939.14 637.56 915.86 597.23"/>
    <rect x="1106.12" y="607.54" width="50.69" height="50.69" transform="translate(2245.29 -30.55) rotate(120)"/>
    <rect x="1029.19" y="607.54" width="50.69" height="50.69" transform="translate(2284.23 653.71) rotate(150)"/>
    <polygon points="1069.72 597.23 1116.28 597.23 1093 637.56 1069.72 597.23"/>
    <rect x="721.47" y="474.29" width="50.69" height="50.69" transform="translate(1552.91 102.7) rotate(120)"/>
    <polygon points="761.99 535.28 785.27 494.96 808.56 535.28 761.99 535.28"/>
    <polygon points="685.06 463.99 731.63 463.99 708.34 504.31 685.06 463.99"/>
    <rect x="875.33" y="474.29" width="50.69" height="50.69" transform="translate(1783.7 -30.55) rotate(120)"/>
    <rect x="798.4" y="474.29" width="50.69" height="50.69" transform="translate(1786.94 520.46) rotate(150)"/>
    <polygon points="838.92 463.99 885.49 463.99 862.21 504.31 838.92 463.99"/>
    <rect x="1067.66" y="540.92" width="50.69" height="50.69" transform="translate(1659.26 -526.74) rotate(90)"/>
    <rect x="1029.19" y="474.29" width="50.69" height="50.69" transform="translate(2014.5 -163.8) rotate(120)"/>
    <rect x="952.26" y="474.29" width="50.69" height="50.69" transform="translate(2074.05 443.53) rotate(150)"/>
    <rect x="913.79" y="540.92" width="50.69" height="50.69" transform="translate(1505.4 -372.88) rotate(90)"/>
    <polygon points="970.11 592.79 970.11 539.73 1016.07 513.19 1062.03 539.73 1062.03 592.79 1016.07 619.33 970.11 592.79"/>
    <polygon points="915.86 535.28 939.14 494.96 962.42 535.28 915.86 535.28"/>
    <polygon points="1069.72 535.28 1093 494.96 1116.28 535.28 1069.72 535.28"/>
    <polygon points="992.79 463.99 1039.35 463.99 1016.07 504.31 992.79 463.99"/>
    <rect x="1183.05" y="474.29" width="50.69" height="50.69" transform="translate(2245.29 -297.05) rotate(120)"/>
    <rect x="1106.12" y="474.29" width="50.69" height="50.69" transform="translate(2361.16 366.6) rotate(150)"/>
    <polygon points="1123.97 592.79 1123.97 539.73 1169.93 513.19 1215.89 539.73 1215.89 592.79 1169.93 619.33 1123.97 592.79"/>
    <polygon points="1146.65 463.99 1193.21 463.99 1169.93 504.31 1146.65 463.99"/>
    <rect x="1298.45" y="141.17" width="50.69" height="50.69" transform="translate(1490.31 -1157.28) rotate(90)"/>
    <rect x="1259.99" y="74.54" width="50.69" height="50.69" transform="translate(2014.5 -963.3) rotate(120)"/>
    <rect x="1183.05" y="74.54" width="50.69" height="50.69" transform="translate(2304.84 -417.8) rotate(150)"/>
    <rect x="1144.59" y="141.17" width="50.69" height="50.69" transform="translate(1336.44 -1003.42) rotate(90)"/>
    <polygon points="1200.91 193.05 1200.91 139.98 1246.86 113.45 1292.82 139.98 1292.82 193.05 1246.86 219.58 1200.91 193.05"/>
    <polygon points="1146.65 135.54 1169.93 95.21 1193.21 135.54 1146.65 135.54"/>
    <polygon points="1300.51 135.54 1323.79 95.21 1347.08 135.54 1300.51 135.54"/>
    <polygon points="1223.58 64.24 1270.14 64.24 1246.86 104.56 1223.58 64.24"/>
    <rect x="1336.92" y="74.54" width="50.69" height="50.69" transform="translate(2591.96 -494.74) rotate(150)"/>
    <polygon points="1354.77 193.05 1354.77 139.98 1400.73 113.45 1446.68 139.98 1446.68 193.05 1400.73 219.58 1354.77 193.05"/>
    <rect x="1336.92" y="-58.7" width="50.69" height="50.69" transform="translate(2014.5 -1229.79) rotate(120)"/>
    <rect x="1259.99" y="-58.7" width="50.69" height="50.69" transform="translate(2381.78 -704.92) rotate(150)"/>
    <rect x="1221.52" y="7.92" width="50.69" height="50.69" transform="translate(1280.13 -1213.6) rotate(90)"/>
    <polygon points="1277.84 59.8 1277.84 6.73 1323.79 -19.8 1369.75 6.73 1369.75 59.8 1323.79 86.33 1277.84 59.8"/>
    <polygon points="1223.58 2.29 1246.86 -38.04 1270.14 2.29 1223.58 2.29"/>
    <rect x="1298.45" y="407.67" width="50.69" height="50.69" transform="translate(1756.8 -890.78) rotate(90)"/>
    <rect x="1259.99" y="341.04" width="50.69" height="50.69" transform="translate(2245.29 -563.55) rotate(120)"/>
    <rect x="1183.05" y="341.04" width="50.69" height="50.69" transform="translate(2438.09 79.49) rotate(150)"/>
    <rect x="1144.59" y="407.67" width="50.69" height="50.69" transform="translate(1602.94 -736.92) rotate(90)"/>
    <polygon points="1200.91 459.54 1200.91 406.48 1246.86 379.94 1292.82 406.48 1292.82 459.54 1246.86 486.08 1200.91 459.54"/>
    <polygon points="1146.65 402.04 1169.93 361.71 1193.21 402.04 1146.65 402.04"/>
    <polygon points="1300.51 402.04 1323.79 361.71 1347.08 402.04 1300.51 402.04"/>
    <polygon points="1223.58 330.74 1270.14 330.74 1246.86 371.06 1223.58 330.74"/>
    <rect x="1336.92" y="341.04" width="50.69" height="50.69" transform="translate(2725.2 2.56) rotate(150)"/>
    <polygon points="1354.77 459.54 1354.77 406.48 1400.73 379.94 1446.68 406.48 1446.68 459.54 1400.73 486.08 1354.77 459.54"/>
    <rect x="1336.92" y="207.79" width="50.69" height="50.69" transform="translate(2245.29 -830.05) rotate(120)"/>
    <rect x="1259.99" y="207.79" width="50.69" height="50.69" transform="translate(2515.02 -207.62) rotate(150)"/>
    <rect x="1221.52" y="274.42" width="50.69" height="50.69" transform="translate(1546.62 -947.1) rotate(90)"/>
    <polygon points="1277.84 326.3 1277.84 273.23 1323.79 246.69 1369.75 273.23 1369.75 326.3 1323.79 352.83 1277.84 326.3"/>
    <polygon points="1223.58 268.79 1246.86 228.46 1270.14 268.79 1223.58 268.79"/>
    <polygon points="1300.51 197.49 1347.08 197.49 1323.79 237.81 1300.51 197.49"/>
    <rect x="1183.05" y="607.54" width="50.69" height="50.69" transform="translate(2571.34 576.78) rotate(150)"/>
    <polygon points="1146.65 668.53 1169.93 628.21 1193.21 668.53 1146.65 668.53"/>
    <polygon points="1223.58 597.23 1270.14 597.23 1246.86 637.56 1223.58 597.23"/>
    <rect x="1336.92" y="474.29" width="50.69" height="50.69" transform="translate(2476.09 -430.3) rotate(120)"/>
    <rect x="1259.99" y="474.29" width="50.69" height="50.69" transform="translate(2648.27 289.67) rotate(150)"/>
    <rect x="1221.52" y="540.92" width="50.69" height="50.69" transform="translate(1813.12 -680.6) rotate(90)"/>
    <polygon points="1223.58 535.28 1246.86 494.96 1270.14 535.28 1223.58 535.28"/>
    <polygon points="1300.51 463.99 1347.08 463.99 1323.79 504.31 1300.51 463.99"/>
  </g>
</svg>
