<svg xmlns="http://www.w3.org/2000/svg" viewBox="0 0 1366 768">
    <path opacity=".3" d="M565.825 723.969v-37.198l32.215-18.599 32.214 18.599v37.198l-32.214 18.599-32.215-18.599zM636.145 723.969v-37.198l32.215-18.599 32.214 18.599v37.198l-32.214 18.599-32.215-18.599zM706.465 723.969v-37.198l32.215-18.599 32.214 18.599v37.198l-32.214 18.599-32.215-18.599zM776.785 723.969v-37.198l32.214-18.599 32.215 18.599v37.198l-32.215 18.599-32.214-18.599zM847.105 723.969v-37.198l32.214-18.599 32.215 18.599v37.198l-32.215 18.599-32.214-18.599zM917.425 723.969v-37.198l32.214-18.599 32.215 18.599v37.198l-32.215 18.599-32.214-18.599zM987.745 723.969v-37.198l32.214-18.599 32.215 18.599v37.198l-32.215 18.599-32.214-18.599zM600.986 784.867v-37.198l32.215-18.599 32.214 18.599v37.198l-32.214 18.599-32.215-18.599zM671.306 784.867v-37.198l32.215-18.599 32.214 18.599v37.198l-32.214 18.599-32.215-18.599zM741.626 784.867v-37.198l32.215-18.599 32.214 18.599v37.198l-32.214 18.599-32.215-18.599zM811.946 784.867v-37.198l32.215-18.599 32.214 18.599v37.198l-32.214 18.599-32.215-18.599zM882.266 784.867v-37.198l32.214-18.599 32.215 18.599v37.198l-32.215 18.599-32.214-18.599zM952.586 784.867v-37.198L984.8 729.07l32.215 18.599v37.198L984.8 803.466l-32.214-18.599zM495.504 602.171v-37.198l32.215-18.599 32.214 18.599v37.198l-32.214 18.599-32.215-18.599zM565.824 602.171v-37.198l32.215-18.599 32.214 18.599v37.198l-32.214 18.599-32.215-18.599zM636.144 602.171v-37.198l32.215-18.599 32.214 18.599v37.198l-32.214 18.599-32.215-18.599zM706.464 602.171v-37.198l32.215-18.599 32.214 18.599v37.198l-32.214 18.599-32.215-18.599zM776.784 602.171v-37.198l32.214-18.599 32.215 18.599v37.198l-32.215 18.599-32.214-18.599zM847.104 602.171v-37.198l32.214-18.599 32.215 18.599v37.198l-32.215 18.599-32.214-18.599zM917.424 602.171v-37.198l32.214-18.599 32.215 18.599v37.198l-32.215 18.599-32.214-18.599zM987.743 602.171v-37.198l32.215-18.599 32.215 18.599v37.198l-32.215 18.599-32.215-18.599zM1058.063 602.171v-37.198l32.215-18.599 32.215 18.599v37.198l-32.215 18.599-32.215-18.599zM530.665 663.069v-37.198l32.215-18.599 32.215 18.599v37.198l-32.215 18.599-32.215-18.599zM600.985 663.069v-37.198l32.215-18.599 32.214 18.599v37.198L633.2 681.668l-32.215-18.599zM671.305 663.069v-37.198l32.215-18.599 32.214 18.599v37.198l-32.214 18.599-32.215-18.599zM741.625 663.069v-37.198l32.215-18.599 32.214 18.599v37.198l-32.214 18.599-32.215-18.599zM811.945 663.069v-37.198l32.214-18.599 32.215 18.599v37.198l-32.215 18.599-32.214-18.599zM882.265 663.069v-37.198l32.214-18.599 32.215 18.599v37.198l-32.215 18.599-32.214-18.599zM952.585 663.069v-37.198l32.214-18.599 32.215 18.599v37.198l-32.215 18.599-32.214-18.599zM1022.904 663.069v-37.198l32.215-18.599 32.215 18.599v37.198l-32.215 18.599-32.215-18.599zM565.822 480.373v-37.198l32.215-18.599 32.215 18.599v37.198l-32.215 18.599-32.215-18.599zM636.142 480.373v-37.198l32.215-18.599 32.214 18.599v37.198l-32.214 18.599-32.215-18.599zM706.462 480.373v-37.198l32.215-18.599 32.214 18.599v37.198l-32.214 18.599-32.215-18.599zM776.782 480.373v-37.198l32.215-18.599 32.214 18.599v37.198l-32.214 18.599-32.215-18.599zM847.102 480.373v-37.198l32.215-18.599 32.214 18.599v37.198l-32.214 18.599-32.215-18.599zM917.422 480.373v-37.198l32.214-18.599 32.215 18.599v37.198l-32.215 18.599-32.214-18.599zM987.742 480.373v-37.198l32.214-18.599 32.215 18.599v37.198l-32.215 18.599-32.214-18.599zM1058.062 480.373v-37.198l32.214-18.599 32.215 18.599v37.198l-32.215 18.599-32.214-18.599zM1128.381 480.373v-37.198l32.215-18.599 32.215 18.599v37.198l-32.215 18.599-32.215-18.599zM425.183 480.373v-37.198l32.214-18.599 32.215 18.599v37.198l-32.215 18.599-32.214-18.599zM495.502 480.373v-37.198l32.215-18.599 32.215 18.599v37.198l-32.215 18.599-32.215-18.599zM530.664 541.271v-37.198l32.214-18.599 32.215 18.599v37.198l-32.215 18.6-32.214-18.6zM600.983 541.271v-37.198l32.215-18.599 32.215 18.599v37.198l-32.215 18.6-32.215-18.6zM671.303 541.271v-37.198l32.215-18.599 32.214 18.599v37.198l-32.214 18.6-32.215-18.6zM741.623 541.271v-37.198l32.215-18.599 32.214 18.599v37.198l-32.214 18.6-32.215-18.6zM811.943 541.271v-37.198l32.215-18.599 32.214 18.599v37.198l-32.214 18.6-32.215-18.6zM882.263 541.271v-37.198l32.215-18.599 32.214 18.599v37.198l-32.214 18.6-32.215-18.6zM952.583 541.271v-37.198l32.214-18.599 32.215 18.599v37.198l-32.215 18.6-32.214-18.6zM1022.903 541.271v-37.198l32.214-18.599 32.215 18.599v37.198l-32.215 18.6-32.214-18.6zM1093.223 541.271v-37.198l32.214-18.599 32.215 18.599v37.198l-32.215 18.6-32.214-18.6zM460.344 541.271v-37.198l32.214-18.599 32.215 18.599v37.198l-32.215 18.6-32.214-18.6zM636.141 358.575v-37.198l32.215-18.599 32.214 18.599v37.198l-32.214 18.599-32.215-18.599zM706.461 358.575v-37.198l32.215-18.599 32.214 18.599v37.198l-32.214 18.599-32.215-18.599zM776.781 358.575v-37.198l32.215-18.599 32.214 18.599v37.198l-32.214 18.599-32.215-18.599zM847.101 358.575v-37.198l32.214-18.599 32.215 18.599v37.198l-32.215 18.599-32.214-18.599zM917.421 358.575v-37.198l32.214-18.599 32.215 18.599v37.198l-32.215 18.599-32.214-18.599zM987.741 358.575v-37.198l32.214-18.599 32.215 18.599v37.198l-32.215 18.599-32.214-18.599zM1058.06 358.575v-37.198l32.215-18.599 32.215 18.599v37.198l-32.215 18.599-32.215-18.599zM495.501 358.575v-37.198l32.215-18.599 32.215 18.599v37.198l-32.215 18.599-32.215-18.599zM565.821 358.575v-37.198l32.215-18.599 32.215 18.599v37.198l-32.215 18.599-32.215-18.599zM600.982 419.474v-37.199l32.215-18.599 32.215 18.599v37.199l-32.215 18.599-32.215-18.599zM671.302 419.474v-37.199l32.215-18.599 32.214 18.599v37.199l-32.214 18.599-32.215-18.599zM741.622 419.474v-37.199l32.215-18.599 32.214 18.599v37.199l-32.214 18.599-32.215-18.599zM811.942 419.474v-37.199l32.215-18.599 32.214 18.599v37.199l-32.214 18.599-32.215-18.599zM882.262 419.474v-37.199l32.214-18.599 32.215 18.599v37.199l-32.215 18.599-32.214-18.599zM952.582 419.474v-37.199l32.214-18.599 32.215 18.599v37.199l-32.215 18.599-32.214-18.599zM1022.902 419.474v-37.199l32.214-18.599 32.215 18.599v37.199l-32.215 18.599-32.214-18.599zM1093.221 419.474v-37.199l32.215-18.599 32.215 18.599v37.199l-32.215 18.599-32.215-18.599zM460.343 419.474v-37.199l32.214-18.599 32.215 18.599v37.199l-32.215 18.599-32.214-18.599zM530.662 419.474v-37.199l32.215-18.599 32.215 18.599v37.199l-32.215 18.599-32.215-18.599zM671.301 297.605v-37.198l32.215-18.599 32.214 18.599v37.198l-32.214 18.599-32.215-18.599zM741.621 297.605v-37.198l32.215-18.599 32.214 18.599v37.198l-32.214 18.599-32.215-18.599zM811.941 297.605v-37.198l32.214-18.599 32.215 18.599v37.198l-32.215 18.599-32.214-18.599zM882.261 297.605v-37.198l32.214-18.599 32.215 18.599v37.198l-32.215 18.599-32.214-18.599zM952.581 297.605v-37.198l32.214-18.599 32.215 18.599v37.198l-32.215 18.599-32.214-18.599zM1022.901 297.605v-37.198l32.214-18.599 32.215 18.599v37.198l-32.215 18.599-32.214-18.599zM530.661 297.605v-37.198l32.215-18.599 32.215 18.599v37.198l-32.215 18.599-32.215-18.599zM600.981 297.605v-37.198l32.215-18.599 32.214 18.599v37.198l-32.214 18.599-32.215-18.599zM741.636 175.808v-37.199l32.215-18.599 32.215 18.599v37.199l-32.215 18.598-32.215-18.598zM811.956 175.808v-37.199l32.215-18.599 32.215 18.599v37.199l-32.215 18.598-32.215-18.598zM882.276 175.808v-37.199l32.215-18.599 32.214 18.599v37.199l-32.214 18.598-32.215-18.598zM952.596 175.808v-37.199l32.215-18.599 32.214 18.599v37.199l-32.214 18.598-32.215-18.598zM600.997 175.808v-37.199l32.214-18.599 32.215 18.599v37.199l-32.215 18.598-32.214-18.598zM671.317 175.808v-37.199l32.214-18.599 32.215 18.599v37.199l-32.215 18.598-32.214-18.598zM706.478 236.706v-37.198l32.214-18.6 32.215 18.6v37.198l-32.215 18.599-32.214-18.599zM776.797 236.706v-37.198l32.215-18.6 32.215 18.6v37.198l-32.215 18.599-32.215-18.599zM847.117 236.706v-37.198l32.215-18.6 32.215 18.6v37.198l-32.215 18.599-32.215-18.599zM917.437 236.706v-37.198l32.215-18.6 32.214 18.6v37.198l-32.214 18.599-32.215-18.599zM987.757 236.706v-37.198l32.215-18.6 32.214 18.6v37.198l-32.214 18.599-32.215-18.599zM565.838 236.706v-37.198l32.214-18.6 32.215 18.6v37.198l-32.215 18.599-32.214-18.599zM636.158 236.706v-37.198l32.214-18.6 32.215 18.6v37.198l-32.215 18.599-32.214-18.599z"/>
</svg>
