<svg xmlns="http://www.w3.org/2000/svg" viewBox="0 0 1366 768">
  <title>komabasai2018-day2-headline</title>
  <rect x="260.27" y="236.98" width="147.95" height="147.95" rx="14.31" style="opacity: 0.30000000000000004"/>
  <rect x="105.63" y="236.98" width="147.95" height="147.95" rx="14.31" style="opacity: 0.30000000000000004"/>
  <rect x="-49" y="236.98" width="147.95" height="147.95" rx="14.31" style="opacity: 0.30000000000000004"/>
  <rect x="260.27" y="391.78" width="147.95" height="147.95" rx="14.31" style="opacity: 0.30000000000000004"/>
  <rect x="105.63" y="391.78" width="147.95" height="147.95" rx="14.31" style="opacity: 0.30000000000000004"/>
  <rect x="-49" y="391.78" width="147.95" height="147.95" rx="14.31" style="opacity: 0.30000000000000004"/>
  <rect x="260.27" y="82.19" width="147.95" height="147.95" rx="14.31" style="opacity: 0.30000000000000004"/>
  <rect x="105.63" y="82.19" width="147.95" height="147.95" rx="14.31" style="opacity: 0.30000000000000004"/>
  <rect x="415.05" y="236.98" width="147.95" height="147.95" rx="14.31" style="opacity: 0.30000000000000004"/>
  <rect x="415.05" y="391.78" width="147.95" height="147.95" rx="14.31" style="opacity: 0.30000000000000004"/>
  <rect x="260.27" y="546.57" width="147.95" height="147.95" rx="14.31" style="opacity: 0.30000000000000004"/>
  <rect x="105.63" y="546.57" width="147.95" height="147.95" rx="14.31" style="opacity: 0.30000000000000004"/>
  <rect x="415.05" y="546.57" width="147.95" height="147.95" rx="14.31" style="opacity: 0.30000000000000004"/>
  <rect x="-49" y="82.19" width="147.95" height="147.95" rx="14.31" style="opacity: 0.30000000000000004"/>
</svg>
