<svg xmlns="http://www.w3.org/2000/svg" viewBox="0 0 1366 768">
  <title>komabasai2018-day1-headline</title>
  <rect x="1051.04" y="315.87" width="183.24" height="183.24" rx="17.72" style="opacity: 0.30000000000000004"/>
  <rect x="859.52" y="315.87" width="183.24" height="183.24" rx="17.72" style="opacity: 0.30000000000000004"/>
  <rect x="668" y="315.87" width="183.24" height="183.24" rx="17.72" style="opacity: 0.30000000000000004"/>
  <rect x="1051.04" y="507.6" width="183.24" height="183.24" rx="17.72" style="opacity: 0.30000000000000004"/>
  <rect x="859.52" y="507.6" width="183.24" height="183.24" rx="17.72" style="opacity: 0.30000000000000004"/>
  <rect x="668" y="507.6" width="183.24" height="183.24" rx="17.72" style="opacity: 0.30000000000000004"/>
  <rect x="1051.04" y="124.15" width="183.24" height="183.24" rx="17.72" style="opacity: 0.30000000000000004"/>
  <rect x="859.52" y="124.15" width="183.24" height="183.24" rx="17.72" style="opacity: 0.30000000000000004"/>
  <rect x="1242.76" y="315.87" width="183.24" height="183.24" rx="17.72" style="opacity: 0.30000000000000004"/>
  <rect x="1242.76" y="507.6" width="183.24" height="183.24" rx="17.72" style="opacity: 0.30000000000000004"/>
  <rect x="1051.04" y="699.31" width="183.24" height="183.24" rx="17.72" style="opacity: 0.30000000000000004"/>
  <rect x="859.52" y="699.31" width="183.24" height="183.24" rx="17.72" style="opacity: 0.30000000000000004"/>
</svg>
