<svg xmlns="http://www.w3.org/2000/svg" viewBox="0 0 1366 768">
  <title>mayfes2019-day2-headline</title>
  <rect x="257.87" y="76.63" width="148.57" height="148.57" rx="14.37" transform="translate(664.31 301.82) rotate(-180)" style="opacity: 0.30000000000000004"/>
  <rect x="413.15" y="76.63" width="148.57" height="148.57" rx="14.37" transform="translate(974.87 301.82) rotate(-180)" style="opacity: 0.30000000000000004"/>
  <rect x="568.43" y="76.63" width="148.57" height="148.57" rx="14.37" transform="translate(1285.43 301.82) rotate(-180)" style="opacity: 0.30000000000000004"/>
  <rect x="257.87" y="232.07" width="148.57" height="148.57" rx="14.37" transform="translate(664.31 612.71) rotate(-180)" style="opacity: 0.30000000000000004"/>
  <rect x="413.15" y="232.07" width="148.57" height="148.57" rx="14.37" transform="translate(974.87 612.71) rotate(-180)" style="opacity: 0.30000000000000004"/>
  <rect x="568.43" y="232.07" width="148.57" height="148.57" rx="14.37" transform="translate(1285.43 612.71) rotate(-180)" style="opacity: 0.30000000000000004"/>
  <rect x="257.87" y="-78.82" width="148.57" height="148.57" rx="14.37" transform="translate(664.31 -9.07) rotate(-180)" style="opacity: 0.30000000000000004"/>
  <rect x="102.44" y="76.63" width="148.57" height="148.57" rx="14.37" transform="translate(353.44 301.82) rotate(-180)" style="opacity: 0.30000000000000004"/>
  <rect x="102.44" y="232.07" width="148.57" height="148.57" rx="14.37" transform="translate(353.44 612.71) rotate(-180)" style="opacity: 0.30000000000000004"/>
  <rect x="257.87" y="387.51" width="148.57" height="148.57" rx="14.37" transform="translate(664.31 923.58) rotate(-180)" style="opacity: 0.30000000000000004"/>
  <rect x="413.15" y="387.51" width="148.57" height="148.57" rx="14.37" transform="translate(974.87 923.58) rotate(-180)" style="opacity: 0.30000000000000004"/>
  <rect x="102.44" y="387.51" width="148.57" height="148.57" rx="14.37" transform="translate(353.44 923.58) rotate(-180)" style="opacity: 0.30000000000000004"/>
  <rect x="102.44" y="-78.82" width="148.57" height="148.57" rx="14.37" transform="translate(353.44 -9.07) rotate(-180)" style="opacity: 0.30000000000000004"/>
  <rect x="-53" y="232.07" width="148.57" height="148.57" rx="14.37" transform="translate(42.57 612.71) rotate(-180)" style="opacity: 0.30000000000000004"/>
  <rect x="-53" y="387.51" width="148.57" height="148.57" rx="14.37" transform="translate(42.57 923.58) rotate(-180)" style="opacity: 0.30000000000000004"/>
  <rect x="257.87" y="542.94" width="148.57" height="148.57" rx="14.37" transform="translate(664.31 1234.45) rotate(-180)" style="opacity: 0.30000000000000004"/>
  <rect x="413.15" y="542.94" width="148.57" height="148.57" rx="14.37" transform="translate(974.87 1234.45) rotate(-180)" style="opacity: 0.30000000000000004"/>
</svg>
