<svg xmlns="http://www.w3.org/2000/svg" viewBox="0 0 1366 768">
    <defs>
        <style>
            .cls-1{fill:#ccc}
        </style>
    </defs>
    <g id="g3721">
        <g id="g3522">
            <path id="和歌山" class="cls-1" d="M563.93 758.66c5.63-3.08 12.47-5.6 15.2-5.59 6.24 0 10.94-5.55 12.53-14.82.83-4.89.58-6.9-.94-7.41-4.39-1.47-15.43-13.21-18.8-20-2.93-5.89-4.67-7.42-10.36-9.07-7.83-2.28-23.09-12.15-25.36-16.4-3.87-7.26 0-28.5 7.33-39.85a67.21 67.21 0 018.86-10.52c6.37-5.94 9.21-11.19 10-18.39.55-5.32.32-5.59-5.85-6.8-15.21-3-29.22-6.72-33.54-8.95s-5.14-2.12-10.44.85a136.52 136.52 0 01-15 6.68c-5.09 1.89-10 4.84-10.93 6.56s-2.4 9.31-3.27 16.86a139.66 139.66 0 01-5.57 25.06c-4.88 13.88-4.22 17.48 4.95 27 5.07 5.27 7.38 9.26 8.39 14.47.77 4 3.83 12.26 6.81 18.45 4.27 8.85 7.13 12.45 13.41 16.89a132.9 132.9 0 0116 14.11c8.56 9 19.09 16.34 23.63 16.43 1.52 0 7.37-2.47 13-5.55z"/>
            <path id="三重" class="cls-1" d="M597.91 715.64c1.37-4.7 3.78-9.7 5.35-11.11s9.89-5.58 18.48-9.26 17.42-8.35 19.61-10.37 5.19-7.83 6.7-13c3.51-12 8.88-17.32 20.07-19.86 12.66-2.88 44.24-4.4 54.54-2.62 10.51 1.81 19-.94 23.38-7.58 4.72-7.18-.17-16.41-19.23-36.28-25.57-26.64-32.92-35.38-32.91-39.13 0-5 4.56-11.52 16.42-23.78 7.71-8 12.12-11.18 17.46-12.7 3.93-1.13 7.37-2.2 7.65-2.39s-1.7-4.51-4.4-9.58-4.9-10.13-4.9-11.21-3.37-2.93-7.49-4.09A38.54 38.54 0 01706 496l-5.17-4.55-3.65 14.85c-7.53 30.66-10.29 33.33-36 34.8-16.37.94-19.94 2-29.55 9.19l-5.3 3.94 6.48 11.85c5.23 9.59 6.47 13.45 6.45 20.26 0 11-15.17 69.16-20.3 77.9-5.36 9.13-18.64 20.49-31.69 27.11-6.77 3.44-10.85 6.5-10.86 8.16 0 4.27 7.57 16 13.22 20.48 2.86 2.27 5.34 4.14 5.5 4.15a73.69 73.69 0 002.79-8.53z"/>
            <path id="奈良" class="cls-1" d="M571.07 692.28c1-1.63 6.07-4.94 11.24-7.37 11-5.16 24.64-16.3 29.38-23.93 4.2-6.79 19.58-64.25 19.79-74a21.91 21.91 0 00-3.69-13.32 90.46 90.46 0 01-5.79-10.48c-1.58-3.64-2.65-4.27-5.87-3.47-5.08 1.26-24.84-6.46-28.5-11.15-3.25-4.14-2.56-5.63-10.14 22-3.63 13.23-6 26.25-6.71 36.13-1.22 18.13-4.35 26.51-12.72 34.1a47.88 47.88 0 00-8.9 11.09c-3.91 7.61-7.93 23.28-6.95 27.06 1.28 5 17.93 15.55 25.38 16.15.9.07 2.46-1.2 3.48-2.82z"/>
            <path id="静岡" class="cls-1" d="M1037.63 630.87a36.29 36.29 0 003.87-6c1-1.89 8.47-7.14 16.71-11.67s15.94-9.2 17.09-10.4 4-9.18 6.32-17.73c4.19-15.45 4.19-15.61 1.4-24.44-2.11-6.65-3.88-9.35-7-10.66-2.31-1-5.91-4.08-8-6.9-3.39-4.52-3.83-6.83-3.82-19.74 0-9.34-.7-15.5-2-17.05s-6.55-2.78-16-3.53c-7.72-.6-17.15-1.52-20.94-2-8.39-1.15-12.12 1.58-16.72 12.24-3.92 9.07-10.49 16-15.11 16-5.88 0-12.17-9.26-22.19-32.61-5.22-12.17-10.26-21.87-11.2-21.57s-3.16 3.07-4.94 6.14c-4.21 7.31-29.46 31-42.25 39.61a205.86 205.86 0 00-20.11 16.09 120.54 120.54 0 01-22.09 15.51c-20.42 10.51-31.67 24.58-36.15 45.2-1.11 5.07-1 5.22 4.21 5.26 6.93 0 25.66 4.17 61.54 13.56 15.89 4.16 31.42 7.36 34.51 7.12 5-.4 6.08-1.35 10.09-9.27 5-9.9 9-14.71 18-21.49 4.21-3.18 7.81-8.23 11.43-16 7.31-15.73 10.37-18.13 29.12-22.87 18.09-4.57 27.07-4.23 31.46 1.21 4.07 5 3.52 11.2-3 33.7s-7 35.6-1.58 41.65c3.57 4 4.63 4.05 7.42.7z"/>
            <path id="大阪" class="cls-1" d="M563.75 597.13c0-5.83 6.66-32.55 12.43-49.93l4.09-12.32-5.67-11.83c-5.9-12.33-9.15-16.26-14.89-18-3.24-1-3.46-.34-4.59 13.85-1.22 15.14-6.91 36.45-11.29 42.22a12.34 12.34 0 00-2.47 5.58c-.19 7.17-4.23 15.82-9.91 21.22l-6.28 6 8.45 2.38c10.8 3 21.89 5.41 26.5 5.64 3 .15 3.62-.66 3.63-4.75z"/>
            <path id="愛知" class="cls-1" d="M827.19 594.12c5.4-23.1 18-38.48 41.71-50.78 6.69-3.48 14.93-9.16 18.31-12.63l6.15-6.3-7.61-1.93a67 67 0 01-14.15-5.73c-3.6-2.09-18.06-6.8-32.14-10.47-26.8-7-27.27-7.19-36.09-16-7.32-7.29-23.46-14.71-34.57-15.87-8-.84-9.45-.51-13.09 2.89a32 32 0 00-6.42 9.45c-1.27 3.09-5.37 8.26-9.1 11.48l-6.79 5.87 5.49 11.4c5.18 10.75 5.8 11.4 10.85 11.41 7.12 0 8 3 4.7 15.38-3.39 12.62-3.33 20.81.2 28 2.34 4.76 3.5 5.56 7.54 5.22 2.63-.23 11.68-.58 20.1-.77 17.4-.4 24 2.15 24 9.22 0 5.17-5.94 9.54-18.59 13.73-5.69 1.88-10.36 3.72-10.36 4.09s10.77.7 23.93.72h23.94l2-8.42z"/>
            <path id="千葉" class="cls-1" d="M1197 597.28a53.43 53.43 0 007.16-9c4.38-6.85 15.13-12.48 37.61-19.69 14.3-4.58 16.41-6.65 20.17-19.8 8.5-29.69 17.5-55.21 20.89-59.22 4.58-5.43 8.37-7 26.41-11.17 7.51-1.73 15.83-4 18.48-5l4.82-1.84-4.81-2.09c-6.12-2.65-11.6-8.62-16.76-18.24-6.06-11.27-14.52-15.17-31.6-14.55-12.06.44-13.61.89-19.73 5.79-13.29 10.64-23.52 7.76-39.16-11-5.52-6.64-13-13.68-16.51-15.66l-6.48-3.59 1.62 9c1.51 8.45-.37 35-3.18 44.91-.91 3.18-.49 3.35 6.81 2.66 10.13-1 19.91 1.8 25.18 7.08s5.35 10.24.21 16.33c-4 4.76-22.63 16.57-29.39 18.64-5 1.55-7.57 7.15-13.94 30.89-6.9 25.67-9.26 55.44-4.63 58.28 3.74 2.3 12.87.84 16.83-2.68z"/>
            <path id="京都" class="cls-1" d="M616.83 551.67a35 35 0 00-1.62-5c-2.68-7.09-7.92-33-8.94-44.13a47.55 47.55 0 011.67-19.16c3-10.15 3.34-20.75.85-29.82-1.89-6.91-3.68-8.78-8.45-8.83-5.82-.06-17.6-7.33-22.22-13.72-3.76-5.2-4.57-7.81-4.2-13.66.55-8.93-1.29-17.13-4.09-18.21s-8.73 2.13-14.85 8.25c-5.84 5.83-8.57 6.31-12.31 2.16-5.1-5.65-5.1-16.53 0-31.7l4.61-13.85-3.77-3c-5.53-4.5-8.47-3.86-19.18 4.16A113.54 113.54 0 01506.4 376l-8.27 3.62 4.39 6.38c13.89 20.19 15 22.21 15 27.36 0 4.41-1.32 6.46-7.25 11.4-4 3.32-7.24 6.84-7.24 7.82 0 2.9 6.69 8.1 14.22 11 14.71 5.73 22.58 15.59 28.17 35.33 3.12 11 7.72 16.25 16.4 18.6 8.93 2.42 13.49 8.07 23.53 29.09l8.83 18.49 8.52 3.43c8.17 3.3 14.14 4.62 14.14 3.14z"/>
            <path id="神奈川" class="cls-1" d="M1165.82 545.31c5.33-4.95 6-10.72 2.8-22.42-3.88-13.94-4.63-22.39-2.63-29.57 1.56-5.61 1.41-6-2.66-7.68-2.36-.95-9-1.65-14.74-1.55-6.5.12-17.32-1.48-28.63-4.23l-18.18-4.41-2.75 3.63a24.26 24.26 0 01-19.52 9.89 26 26 0 00-12.66 3.31c-5.41 3.28-5.42 3.31-2 5.71 6.3 4.42 8.66 11.34 7.28 21.31-.69 5-1.07 10.46-.85 12.23.39 3 7.7 12.13 9.65 12 .5 0 2.59-3.64 4.66-8 4.28-9.1 13.7-15.7 24.39-17.12 12.68-1.67 36.78 5.56 39.14 11.75a31.76 31.76 0 011 8.58c0 3.28.86 6.84 1.92 7.9 3 3 9.92 2.31 13.81-1.3z"/>
            <path id="滋賀" class="cls-1" d="M640.15 535.52c1.77-.75 10.62-1.77 19.67-2.26 22.73-1.25 22.91-1.45 31.13-35.32 6.86-28.26 7.65-37.72 4-48.09a85.66 85.66 0 01-3.32-15.06 136.74 136.74 0 00-3.29-16.87l-2.32-8.5-4.36 3C675 417 646.41 432 644.33 432c-1 0-8 2.7-15.47 6-12.71 5.59-13.57 6.28-12.68 10 2.61 10.91 2.68 26.79.16 35.22a64.53 64.53 0 00-2.62 14.78c0 5.77 7.36 44.07 9 46.72.41.68 3.79-.81 7.49-3.31a84.58 84.58 0 019.95-5.91z"/>
            <path id="山梨" class="cls-1" d="M1002.49 507.09c6.82-14.22 15.4-17.84 32-13.51 14 3.62 17.36 3.66 18.46.22 1.5-4.72 13.14-10.74 23.1-11.95 10.26-1.25 15.28-4.2 17.92-10.52 3.35-8.05-1.57-15.05-19-27.13-9.72-6.72-17.61-13.72-22.29-19.76l-7.23-9.35-6.43 5.78c-6 5.45-6.9 5.73-14.63 4.87-4.51-.5-14.93-2.88-23.15-5.28-8.56-2.5-15.52-3.76-16.27-2.95s-2.82 8.48-4.67 17.1-5.29 20-7.67 25.27l-4.33 9.59 10 22.92c5.47 12.61 11.08 24.19 12.46 25.73 3.41 3.82 5.68 1.7 11.78-11z"/>
            <path id="長野" class="cls-1" d="M914 509.69c5.75-4.31 16.07-13.86 22.93-21.22 32.06-34.41 30-31.08 36.12-58.31 5.49-24.42 5.75-24.56 32.49-16.8 19.71 5.73 22.52 5.89 28 1.61 6.63-5.19 6.69-8.37.33-18.34-7.6-11.95-8.7-21.11-4.19-35 4.89-15.05 5.91-22.87 3.29-25.24a78.34 78.34 0 00-10.15-6.27c-13.94-7.51-18.87-20.33-12.76-33.14 3.66-7.69 9.41-12.4 26.46-21.71 8.4-4.58 15.82-8.84 16.49-9.45s.21-4.7-1-9.08-2.73-10.81-3.33-14.31c-2-11.79-8-20.15-14.41-20.16-2.24 0-8.45 3.9-15.41 9.69-16.61 13.83-19.32 15-34.11 14.58-6.87-.19-14 .43-15.77 1.39-4.21 2.25-10.6-1.66-12-7.36-1.23-4.91-5-5.14-13.09-.8-3.3 1.76-7.57 3.2-9.5 3.19-6.45 0-16.4 15.29-19.83 30.48-4.87 21.62-10.39 37.26-14 39.59-2.92 1.9-3.82 4.42-4.7 13.09-1.13 11.18-7.41 36.56-11.4 46.05-3.44 8.2-11.52 16.55-20.27 21-9.9 5-10.12 8.63-1.3 21.68 8.58 12.68 13.49 31.47 12.18 46.66-.75 8.8-6.38 28.65-11.32 39.94q-1.65 3.76 23.76 13.08c12 4.39 14.94 3.86 26.51-4.82z"/>
            <path id="岐阜" class="cls-1" d="M859.6 490.16c6.42-15.9 8.49-26.45 7.51-38.35-1.13-13.73-4-21.9-12.14-34.43-9.92-15.29-8.9-24 3.54-30.17 8.75-4.37 13.63-8.87 17.21-15.86 4.49-8.76 9.75-28.27 12-44.37l2-14.69-25.17-6.64c-13.85-3.65-27.33-6.64-30-6.65-2.95 0-7.5 2.05-11.86 5.35-9.19 7-13.28 9.06-17.68 9-4 0-9.46-4.24-9.45-7.29a6.31 6.31 0 00-2.31-3.89c-1.93-1.61-2.62-.77-4.16 5-2.87 10.81-9.18 20.26-16.56 24.8-3.71 2.29-8 5.7-9.52 7.58-4.06 5-3.55 15 1.16 22.7 5.59 9.11 5.32 17.52-.73 23.15-7.25 6.75-15.31 8.41-34.57 7.13-16.07-1.07-17.2-.93-25.59 3.15-4.82 2.35-9.18 5.33-9.67 6.61s.1 5.21 1.34 8.73a121.09 121.09 0 013.87 18.27c.89 6.54 2.42 14 3.4 16.54s1.92 11.7 2.1 20.31c.28 12.85.93 16.45 3.6 20.08 3.44 4.68 12.28 9.86 17.05 10 5.7.16 15.17-7.85 18-15.22 6.75-17.6 25.8-19.74 52.52-5.91 5.87 3.05 12.91 8 15.63 11a27.9 27.9 0 0013.41 7.91c18.41 5.24 26.19 7.12 28.48 6.84 1.31-.16 4.27-5 6.59-10.7z"/>
            <path id="東京" class="cls-1" d="M1175.26 475.5c3.26-2.2 7.27-4 8.91-4a2.79 2.79 0 003-2.8 30.1 30.1 0 011-6.29c.88-3.26.41-3.46-7.64-3.28-11.24.24-38.75-3.39-48-6.33-7.09-2.26-9.46-3.72-24-14.76-14.88-11.31-26.68-1.77-13.81 11.15 3 3 6.24 8.35 7.17 11.85l1.7 6.36 17.67 4.63c11.94 3.13 19.63 4.33 23.72 3.69 4.52-.7 20.51 1.7 24 3.61.18.1 3-1.62 6.26-3.83z"/>
            <path id="茨城" class="cls-1" d="M1326.05 451.29c-16.2-29.54-17-31.93-17.89-52.66-.7-16.46-.34-19.32 5.18-40.95 7.25-28.41 10.58-35.5 24.92-52.93l11.21-13.63-3.49-3.84c-5.23-5.76-16.47-10.33-22.61-9.19-2.84.53-7.56 3.42-10.48 6.43s-7.05 5.9-9.16 6.42c-5.15 1.29-12.29-2.65-17.67-9.73-4.07-5.36-4.55-5.57-6.5-2.92-1.16 1.58-2.11 6.17-2.12 10.2 0 7.22-6.67 42.77-9.81 52.41-2.25 6.89-7.93 11.69-26.05 22-21.09 12-28.63 15.16-41.2 17.2-20.22 3.29-18.84 1.79-11.53 12.6 4.91 7.26 8.39 10.45 14.86 13.6 11 5.36 14 7.89 22.79 19.38 7.42 9.67 14.24 15.36 18.42 15.39 1.26 0 6.12-2.62 10.81-5.83 7.48-5.13 10-5.94 20.54-6.59 21.18-1.32 34.53 4.47 41.22 17.88 3.56 7.13 10.65 15.58 13.07 15.59.79 0-1.24-4.88-4.51-10.85z"/>
            <path id="埼玉" class="cls-1" d="M1190.19 449.74c.32-.29.94-5.09 1.39-10.66 1.51-18.68-3.35-34.78-15.11-50.07-5.79-7.52-6.77-8.07-26.88-14.84-11.47-3.87-23.39-7.05-26.48-7.07s-9.91 1.71-15.14 3.85c-12.52 5.12-41 22.37-50.21 30.45l-7.34 6.42 7.25 9.89c5.92 8.06 19.26 19.87 22.46 19.87.4 0 1.19-1.79 1.75-4 1.13-4.48 8.34-8.85 14.59-8.84s13.55 3.63 22.45 11.06c9.56 8 17.52 10.74 37.7 13.13 8.36 1 15.57 2.17 16 2.63.84.84 16.45-.79 17.57-1.82z"/>
            <path id="福井" class="cls-1" d="M620.62 432.79c5.94-3 13.78-6.32 17.43-7.29 11.32-3 36-17.2 47.41-27.27 14.22-12.5 20.93-14.51 46.58-13.9 16.54.38 19.83 0 23.64-2.54 5.58-3.77 5.71-8.93.43-16.74-3.11-4.59-4-7.95-4-15.05 0-8.88-.13-9.19-5.2-10.93-7.77-2.67-12.1-7.19-25.14-26.25-6.51-9.51-12.78-18.09-13.94-19.05-2.49-2.07-13.5 5.41-23.91 16.23a121.7 121.7 0 01-15.68 13c-15.72 10.72-16.65 14.47-8.53 34.29 4.13 10.07 5.07 20.31 2.49 27.05-3.19 8.36-14.86 15.49-25.3 15.47-6.32 0-14.17 3.56-15.52 7.07-1.81 4.68-14 9.25-27.07 10.12-10.14.68-12.57 1.34-12.54 3.42.06 5.16 7.86 12.23 17.18 15.57 8.58 3.08 9.63 2.93 21.66-3.21z"/>
            <path id="群馬" class="cls-1" d="M1050.83 396.5c3.68-4.42 34-23.42 48.09-30.18 17.43-8.33 28.56-8.87 45.87-2.22 20 7.67 19.65 7.69 13.82-.82a175.91 175.91 0 01-10.6-19c-6.27-13.15-7.1-22.22-3.09-33.53 2.28-6.41 2.22-7.57-.77-16.27-3.69-10.73-3.92-15.49-1.41-29.76 1.75-9.94 1.68-10.41-2.68-16.72-6.21-9-11.38-12.69-17.81-12.7-7.77 0-13.78 3.57-20.79 12.38-16.08 20.23-22 24.48-33.79 24.46s-43.1 16.61-48.89 26.06c-6.43 10.51-2.88 19.18 10.86 26.54 14.4 7.7 15.68 12.45 9.16 34.08-5.19 17.2-5.08 21.44.79 31.72 5 8.75 7.72 10.2 11.24 6z"/>
            <path id="栃木" class="cls-1" d="M1197 372.85c13.77-2.48 18.47-4.47 41.58-17.59 18.52-10.51 21.7-14.19 24.31-28.12.92-4.88 2.77-13.93 4.12-20.11a109.14 109.14 0 002.44-18 48.33 48.33 0 013.14-14.71l3.15-7.94-9.64-17c-5.3-9.33-11.9-18.88-14.66-21.21-7.23-6.1-20-5.13-32 2.43-20.7 13-26.29 16-35.53 19.15-10.19 3.42-25.09 4.32-29.77 1.81-2.32-1.25-2.72-.52-2.84 5.21-.07 3.67-.73 11.15-1.45 16.64-1.13 8.5-.79 11.41 2.34 19.82 3.56 9.58 3.59 10.09 1 18.28-4.92 15.49-2.7 24.08 12.16 47.14 11.72 18.19 11.08 17.9 31.65 14.19z"/>
            <path id="石川" class="cls-1" d="M767.67 325.61a25 25 0 008.35-7.84c4-6.5 9.31-25.28 11.58-41.25 2.11-14.84 13.88-58.21 18-66.29 3.31-6.48 7.72-10 14.67-11.7 2.43-.6 4.42-2 4.42-3.19s1.87-4.32 4.15-7c4.51-5.35 4.19-6.79-2.84-12.73-5.82-4.91-6-11.7-.42-16.07 2.22-1.74 10-5.07 17.27-7.4 21.87-7 41.39-24.14 41.42-36.34 0-6.07-4.51-9.43-12.68-9.44-7.05 0-9.25.94-20.12 8.62-3.23 2.29-8.43 3.3-20.9 4.07-15.09.93-17.44 1.53-25.9 6.54A110.2 110.2 0 00789.06 137l-6.31 5.89 1.08 21.4c1.23 24.34-1.3 42.38-8.44 60.13-5.25 13-18.21 27-43 46.31-10.18 7.93-18.55 14.9-18.62 15.48-.11 1 12.09 19 23.13 34.13a40.27 40.27 0 0011.94 10.23c7 3.54 7.17 3.55 10.41.61a45.29 45.29 0 018.38-5.55z"/>
            <path id="富山" class="cls-1" d="M816.39 298.72c12.26-9.73 17-9.77 51.37-.45 25.45 6.9 28.18 7.35 29.92 5 1.06-1.44 4.22-11.7 7-22.8 5.36-21.26 8.62-29.11 15.43-37.17l4.15-4.92-5.43-8.55c-3-4.7-6.94-11.53-8.78-15.17-4.79-9.47-10.27-10.26-24.11-3.47-8.49 4.17-11.43 6.64-14.78 12.42-10.74 18.55-37.62 12.21-43.59-10.27-1.09-4.11-2.51-7.48-3.16-7.48-3.91 0-9.58 3.69-11.57 7.54-3.6 7-15.4 50.26-17.26 63.35-.92 6.47-2.05 12.94-2.5 14.38-.52 1.68.34 2.91 2.43 3.46 1.78.47 4.51 3.09 6.06 5.82s3.62 5 4.61 5 5.57-3 10.19-6.64z"/>
            <g id="兵庫">
                <path id="path4476" class="cls-1" d="M542.83 541.9a143.77 143.77 0 004.51-26.11c.9-13.42.72-14.51-3.27-20.41-2.32-3.43-5.7-11.27-7.52-17.42-4.2-14.21-12.66-24-24-27.79-9.15-3.06-17.6-11.7-17.58-18 0-2.95 2.19-6.22 7.24-10.84 4-3.64 7.25-7.77 7.25-9.16s-3.6-7.5-8-13.56-8.78-13.39-9.73-16.29-2.55-5.27-3.55-5.27-9.64-3.72-19.21-8.26c-13.65-6.48-19.24-8.3-26-8.48-4.74-.12-9.08.24-9.65.81s.15 3.82 1.6 7.23c8 18.9 9.9 37.11 4.77 47-3.81 7.35-12.76 15.33-25 22.33-7.15 4.08-12 8.29-15.42 13.34-8.71 12.93-10.95 34.14-5.51 52.37 2 6.7 2.17 6.83 9.12 6.84 8.71 0 26.89 6 43.41 14.33a160.75 160.75 0 0022 9 128.77 128.77 0 0121.26 9.22c10.5 5.79 13.36 6.6 28 7.89 8.95.8 16.66 1.83 17.13 2.3 2.7 2.71 5.06-.47 8.23-11.07z"/>
                <path id="path4262" class="cls-1" d="M450.37 609.64c2.64-1.19 5-4.42 6.74-9.22 1.61-4.44 5.76-10.38 10.42-14.9 4.26-4.13 9.28-10.5 11.15-14.16 3.17-6.18 3.23-6.93.87-10.54-3.24-5-6.36-4.76-15.32 1-4 2.57-9.33 5.94-11.9 7.48-19.6 11.76-25.39 26.07-14.84 36.66 6 6 7 6.32 12.88 3.64z"/>
            </g>
            <g id="新潟">
                <path id="path4328" class="cls-1" d="M1084 255.63c3.54-3.81 9.27-10.41 12.72-14.66 8.29-10.18 17.74-14.44 29.37-13.21 7.79.81 8.55.61 8.56-2.33 0-1.78-2.15-8.18-4.79-14.22-5.49-12.56-5.83-18-2.15-34.22 5.13-22.57 8.52-25.49 30-25.84 21.67-.35 29.19-5.44 33.5-22.66 2.5-10 7.82-18.49 14.83-23.82l5.44-4.13-4.55-9.07c-5.74-11.42-6.18-24.42-1.19-35 4-8.54 7.19-11.52 18.83-17.77 12.85-6.91 14-9.38 9.34-19.29a95 95 0 00-10.76-16.35c-3.83-4.59-9.94-12-13.58-16.38l-6.61-8-4.16 4.32c-2.8 2.92-5.76 10-9.21 22-6 20.76-10.32 28.83-22.23 41.29-11 11.48-20.26 17.46-35.67 23-14 5-23.6 10.14-33.77 18.15-8.59 6.76-9.64 8-17.1 19.4a140.39 140.39 0 01-13.43 16.84c-4.23 4.41-11.85 14.41-17 22.21-10.37 15.89-24 27.4-39.08 33.1-4.68 1.76-11.55 4.75-15.27 6.64a188.33 188.33 0 01-19.61 7.76c-7.08 2.38-19.33 6.59-27.23 9.35s-16.94 5.08-20.08 5.17a46.34 46.34 0 00-9.33 1.18c-3.56 1-3.52 1.17 2.87 11.88 8.23 13.78 10.7 15.19 19.08 10.94 3.51-1.79 8.58-3.24 11.27-3.24 5 0 11.3 4.76 11.29 8.51 0 1.56 3.9 2 16.1 1.79 18.1-.31 18.72-.56 34.78-14.54 11-9.52 18.13-11.83 26.27-8.44 7.39 3.08 11 9.6 15.37 27.72 4.6 19.12 7.31 22.7 15.47 20.42 2.86-.79 8.09-4.56 11.63-8.38z"/>
                <path id="path4248" class="cls-1" d="M1038.18 68.59c17.17-10.06 22.87-15.18 22.88-20.56 0-2.7-1.19-3.82-4.83-4.56a9.15 9.15 0 01-6.7-5.1c-2.23-4.91 1.12-12.93 10.57-25.26 3.22-4.2 5.86-8.83 5.86-10.3 0-3.82-4.74-8.55-8.59-8.56-4.06 0-17.53 14-20.39 21.2-2.33 5.87-7.72 12.48-10.17 12.47s-7.49 5.09-7.49 7.78c0 1.36 1.9 5.23 4.22 8.6l4.23 6.12-3.46 10.46c-3.36 10.19-4.38 16.82-2.57 16.82.49 0 7.89-4.1 16.44-9.11z"/>
            </g>
        </g>
    </g>
</svg>
