<svg id="レイヤー_1" data-name="レイヤー 1" xmlns="http://www.w3.org/2000/svg" viewBox="0 0 1366 768"><defs><style>.cls-1{opacity:0.3;}</style></defs><rect class="cls-1" x="1137.58" y="106.28" width="118.57" height="118.57" rx="11.47" transform="translate(2393.73 331.13) rotate(-180)"/><rect class="cls-1" x="1261.51" y="106.28" width="118.57" height="118.57" rx="11.47" transform="translate(2641.58 331.13) rotate(-180)"/><rect class="cls-1" x="1261.51" y="-17.42" width="118.57" height="118.57" rx="11.47" transform="translate(2641.58 83.73) rotate(-180)"/><rect class="cls-1" x="1137.58" y="230.34" width="118.57" height="118.57" rx="11.47" transform="translate(2393.73 579.25) rotate(-180)"/><rect class="cls-1" x="1261.51" y="230.34" width="118.57" height="118.57" rx="11.47" transform="translate(2641.58 579.25) rotate(-180)"/><rect class="cls-1" x="1137.58" y="-17.77" width="118.57" height="118.57" rx="11.47" transform="translate(2393.73 83.02) rotate(-180)"/><rect class="cls-1" x="1013.53" y="106.28" width="118.57" height="118.57" rx="11.47" transform="translate(2145.63 331.13) rotate(-180)"/><rect class="cls-1" x="1013.53" y="230.34" width="118.57" height="118.57" rx="11.47" transform="translate(2145.63 579.25) rotate(-180)"/><rect class="cls-1" x="1137.58" y="354.39" width="118.57" height="118.57" rx="11.47" transform="translate(2393.73 827.35) rotate(-180)"/><rect class="cls-1" x="1261.51" y="354.39" width="118.57" height="118.57" rx="11.47" transform="translate(2641.58 827.35) rotate(-180)"/><rect class="cls-1" x="1013.53" y="354.39" width="118.57" height="118.57" rx="11.47" transform="translate(2145.63 827.35) rotate(-180)"/><rect class="cls-1" x="1013.53" y="478.09" width="118.57" height="118.57" rx="11.47" transform="translate(2145.63 1074.75) rotate(-180)"/><rect class="cls-1" x="1013.53" y="-17.77" width="118.57" height="118.57" rx="11.47" transform="translate(2145.63 83.02) rotate(-180)"/><rect class="cls-1" x="1137.58" y="478.44" width="118.57" height="118.57" rx="11.47" transform="translate(2393.73 1075.44) rotate(-180)"/><rect class="cls-1" x="1261.51" y="478.44" width="118.57" height="118.57" rx="11.47" transform="translate(2641.58 1075.44) rotate(-180)"/></svg>