<svg xmlns="http://www.w3.org/2000/svg" viewBox="0 0 1366 768">
  <title>mayfes2019-day1-headline</title>
  <rect x="906.87" y="187.63" width="148.57" height="148.57" rx="14.37" transform="translate(1962.31 523.82) rotate(-180)" style="opacity: 0.30000000000000004"/>
  <rect x="1062.15" y="187.63" width="148.57" height="148.57" rx="14.37" transform="translate(2272.87 523.82) rotate(-180)" style="opacity: 0.30000000000000004"/>
  <rect x="1217.43" y="187.63" width="148.57" height="148.57" rx="14.37" transform="translate(2583.43 523.82) rotate(-180)" style="opacity: 0.30000000000000004"/>
  <rect x="906.87" y="343.07" width="148.57" height="148.57" rx="14.37" transform="translate(1962.31 834.71) rotate(-180)" style="opacity: 0.30000000000000004"/>
  <rect x="1062.15" y="343.07" width="148.57" height="148.57" rx="14.37" transform="translate(2272.87 834.71) rotate(-180)" style="opacity: 0.30000000000000004"/>
  <rect x="1217.43" y="343.07" width="148.57" height="148.57" rx="14.37" transform="translate(2583.43 834.71) rotate(-180)" style="opacity: 0.30000000000000004"/>
  <rect x="906.87" y="32.18" width="148.57" height="148.57" rx="14.37" transform="translate(1962.31 212.93) rotate(-180)" style="opacity: 0.30000000000000004"/>
  <rect x="751.44" y="187.63" width="148.57" height="148.57" rx="14.37" transform="translate(1651.44 523.82) rotate(-180)" style="opacity: 0.30000000000000004"/>
  <rect x="751.44" y="343.07" width="148.57" height="148.57" rx="14.37" transform="translate(1651.44 834.71) rotate(-180)" style="opacity: 0.30000000000000004"/>
  <rect x="906.87" y="498.51" width="148.57" height="148.57" rx="14.37" transform="translate(1962.31 1145.58) rotate(-180)" style="opacity: 0.30000000000000004"/>
  <rect x="1062.15" y="498.51" width="148.57" height="148.57" rx="14.37" transform="translate(2272.87 1145.58) rotate(-180)" style="opacity: 0.30000000000000004"/>
  <rect x="751.44" y="498.51" width="148.57" height="148.57" rx="14.37" transform="translate(1651.44 1145.58) rotate(-180)" style="opacity: 0.30000000000000004"/>
  <rect x="751.44" y="32.18" width="148.57" height="148.57" rx="14.37" transform="translate(1651.44 212.93) rotate(-180)" style="opacity: 0.30000000000000004"/>
  <rect x="596" y="343.07" width="148.57" height="148.57" rx="14.37" transform="translate(1340.57 834.71) rotate(-180)" style="opacity: 0.30000000000000004"/>
  <rect x="596" y="498.51" width="148.57" height="148.57" rx="14.37" transform="translate(1340.57 1145.58) rotate(-180)" style="opacity: 0.30000000000000004"/>
  <rect x="906.87" y="653.94" width="148.57" height="148.57" rx="14.37" transform="translate(1962.31 1456.45) rotate(-180)" style="opacity: 0.30000000000000004"/>
  <rect x="1062.15" y="653.94" width="148.57" height="148.57" rx="14.37" transform="translate(2272.87 1456.45) rotate(-180)" style="opacity: 0.30000000000000004"/>
</svg>
